# xmcd CD database file
# Copyright (C) 1993-1998 Ti Kan
# 
# Track frame offsets:
#     150
#     28255
#     46913
#     69255
#     89046
#     108017
#     128733
#     148892
#     165108
#     172138
#     195412
#     211934
#     215461
#     284568
#     293112
#     309391
# 
# Disc length: 4452 seconds
# 
# Revision: 1
# Processed by: cddbd v1.4b41PL1 Copyright (c) Steve Scherf et al.
# Submitted via: DiscPlay 4.0.3
# 
DISCID=ec116210
DTITLE=Varius - All Mixed Up
DYEAR=1900
DGENRE=
TTITLE0=Frozen MADONNA
TTITLE1=I Got 5 On It COOLIO
TTITLE2=BIG TRAX 1
TTITLE3=BIG TRAX 2
TTITLE4=BIG TRAX 3
TTITLE5=               
TTITLE6=                     
TTITLE7=     
TTITLE8=          
TTITLE9=                                
TTITLE10=Computer Love           
TTITLE11=                
TTITLE12=                    
TTITLE13=        
TTITLE14=                     
TTITLE15=Panafon Telestet           
EXTD=
EXTT0=
EXTT1=
EXTT2=
EXTT3=
EXTT4=
EXTT5=
EXTT6=
EXTT7=
EXTT8=
EXTT9=
EXTT10=
EXTT11=
EXTT12=
EXTT13=
EXTT14=
EXTT15=
PLAYORDER=
